<?xml version="1.0" encoding="UTF-8"?>
<svg xmlns="http://www.w3.org/2000/svg" xmlns:xlink="http://www.w3.org/1999/xlink" viewBox="0 0 80 80">
  <defs>
    <style>
      .cls-1 {
        fill: url(#linear-gradient-2);
      }

      .cls-2 {
        opacity: .12;
      }

      .cls-3 {
        fill: url(#linear-gradient-10);
      }

      .cls-4 {
        fill: url(#linear-gradient-12);
      }

      .cls-5 {
        mix-blend-mode: color-dodge;
      }

      .cls-6 {
        fill: url(#linear-gradient-4);
      }

      .cls-7 {
        fill: url(#New_Gradient_Swatch_3-2);
      }

      .cls-8 {
        fill: url(#linear-gradient-3);
      }

      .cls-9 {
        fill: url(#Gradiente_sem_nome_102);
      }

      .cls-10 {
        fill: url(#New_Gradient_Swatch_3);
      }

      .cls-11 {
        fill: url(#linear-gradient-5);
      }

      .cls-12 {
        isolation: isolate;
      }

      .cls-13 {
        fill: url(#linear-gradient-8);
      }

      .cls-14 {
        fill: url(#New_Gradient_Swatch_3-3);
      }

      .cls-15 {
        fill: url(#linear-gradient-7);
      }

      .cls-16 {
        fill: url(#linear-gradient-9);
      }

      .cls-17 {
        fill: url(#linear-gradient-11);
      }

      .cls-18 {
        fill: url(#linear-gradient-6);
      }

      .cls-19 {
        fill: url(#linear-gradient);
      }

      .cls-20 {
        fill: url(#New_Gradient_Swatch_3-4);
      }
    </style>
    <radialGradient id="Gradiente_sem_nome_102" data-name="Gradiente sem nome 102" cx="40" cy="40" fx="40" fy="40" r="40" gradientUnits="userSpaceOnUse">
      <stop offset=".44" stop-color="#001135"/>
      <stop offset="1" stop-color="#360257"/>
    </radialGradient>
    <linearGradient id="linear-gradient" x1="-5503.56" y1="43.23" x2="-5480.64" y2="43.23" gradientTransform="translate(-5466.1 89.85) rotate(-180)" gradientUnits="userSpaceOnUse">
      <stop offset="0" stop-color="#f906e4"/>
      <stop offset=".31" stop-color="#a306e4"/>
      <stop offset=".4" stop-color="#791dea"/>
      <stop offset=".58" stop-color="#0f58fc"/>
      <stop offset=".61" stop-color="#0062ff"/>
      <stop offset=".68" stop-color="#0065fe"/>
      <stop offset=".75" stop-color="#0071fc"/>
      <stop offset=".82" stop-color="#0085fa"/>
      <stop offset=".89" stop-color="#00a1f6"/>
      <stop offset=".96" stop-color="#00c4f2"/>
      <stop offset="1" stop-color="#00deef"/>
    </linearGradient>
    <linearGradient id="linear-gradient-2" x1="-5518.36" y1="63.9" x2="-5480.64" y2="63.9" gradientTransform="translate(-5466.1 89.85) rotate(-180)" gradientUnits="userSpaceOnUse">
      <stop offset="0" stop-color="#c406e4"/>
      <stop offset=".14" stop-color="#9a19e9"/>
      <stop offset=".47" stop-color="#304bf8"/>
      <stop offset=".61" stop-color="#0062ff"/>
      <stop offset=".68" stop-color="#0065fe"/>
      <stop offset=".75" stop-color="#0071fc"/>
      <stop offset=".82" stop-color="#0085fa"/>
      <stop offset=".89" stop-color="#00a1f6"/>
      <stop offset=".96" stop-color="#00c4f2"/>
      <stop offset="1" stop-color="#00deef"/>
    </linearGradient>
    <linearGradient id="New_Gradient_Swatch_3" data-name="New Gradient Swatch 3" x1="-5527.36" y1="32.1" x2="-5520.32" y2="32.1" gradientTransform="translate(-5466.1 89.85) rotate(-180)" gradientUnits="userSpaceOnUse">
      <stop offset="0" stop-color="#a306e4"/>
      <stop offset=".17" stop-color="#791dea"/>
      <stop offset=".55" stop-color="#0f58fc"/>
      <stop offset=".61" stop-color="#0062ff"/>
      <stop offset=".68" stop-color="#0065fe"/>
      <stop offset=".75" stop-color="#0071fc"/>
      <stop offset=".82" stop-color="#0085fa"/>
      <stop offset=".89" stop-color="#00a1f6"/>
      <stop offset=".96" stop-color="#00c4f2"/>
      <stop offset="1" stop-color="#00deef"/>
    </linearGradient>
    <linearGradient id="New_Gradient_Swatch_3-2" data-name="New Gradient Swatch 3" x1="-5491.87" y1="32.09" x2="-5484.84" y2="32.09" xlink:href="#New_Gradient_Swatch_3"/>
    <linearGradient id="linear-gradient-3" x1="61.43" y1="19.28" x2="49.6" y2="28.84" gradientUnits="userSpaceOnUse">
      <stop offset=".18" stop-color="#a306e4"/>
      <stop offset=".3" stop-color="#791dea"/>
      <stop offset=".57" stop-color="#0f58fc"/>
      <stop offset=".61" stop-color="#0062ff"/>
      <stop offset=".68" stop-color="#0065fe"/>
      <stop offset=".75" stop-color="#0071fc"/>
      <stop offset=".82" stop-color="#0085fa"/>
      <stop offset=".89" stop-color="#00a1f6"/>
      <stop offset=".96" stop-color="#00c4f2"/>
      <stop offset="1" stop-color="#00deef"/>
    </linearGradient>
    <linearGradient id="New_Gradient_Swatch_3-3" data-name="New Gradient Swatch 3" x1="-5491.87" y1="67.6" x2="-5484.85" y2="67.6" xlink:href="#New_Gradient_Swatch_3"/>
    <linearGradient id="New_Gradient_Swatch_3-4" data-name="New Gradient Swatch 3" x1="-5531.55" y1="56.63" x2="-5508.63" y2="56.63" xlink:href="#New_Gradient_Swatch_3"/>
    <linearGradient id="linear-gradient-4" x1="62.48" y1="28.99" x2="35.05" y2="58.43" gradientUnits="userSpaceOnUse">
      <stop offset=".18" stop-color="#c906e4"/>
      <stop offset=".27" stop-color="#9f19e9"/>
      <stop offset=".48" stop-color="#3649f7"/>
      <stop offset=".58" stop-color="#0062ff"/>
      <stop offset=".66" stop-color="#0065fe"/>
      <stop offset=".73" stop-color="#0071fc"/>
      <stop offset=".81" stop-color="#0085fa"/>
      <stop offset=".88" stop-color="#00a1f6"/>
      <stop offset=".95" stop-color="#00c4f2"/>
      <stop offset="1" stop-color="#00deef"/>
    </linearGradient>
    <linearGradient id="linear-gradient-5" x1="14.47" y1="46.62" x2="37.53" y2="46.62" gradientUnits="userSpaceOnUse">
      <stop offset="0" stop-color="#fff"/>
      <stop offset=".01" stop-color="#f9f9f9"/>
      <stop offset=".13" stop-color="#bfbfbf"/>
      <stop offset=".25" stop-color="#8c8c8c"/>
      <stop offset=".37" stop-color="#616161"/>
      <stop offset=".5" stop-color="#3e3e3e"/>
      <stop offset=".62" stop-color="#222"/>
      <stop offset=".74" stop-color="#0f0f0f"/>
      <stop offset=".87" stop-color="#030303"/>
      <stop offset="1" stop-color="#000"/>
    </linearGradient>
    <linearGradient id="linear-gradient-6" x1="14.48" y1="25.96" x2="52.33" y2="25.96" xlink:href="#linear-gradient-5"/>
    <linearGradient id="linear-gradient-7" x1="54.16" y1="57.75" x2="61.32" y2="57.75" xlink:href="#linear-gradient-5"/>
    <linearGradient id="linear-gradient-8" x1="18.68" y1="57.76" x2="25.84" y2="57.76" xlink:href="#linear-gradient-5"/>
    <linearGradient id="linear-gradient-9" x1="54.16" y1="22.26" x2="61.32" y2="22.26" xlink:href="#linear-gradient-5"/>
    <linearGradient id="linear-gradient-10" x1="18.69" y1="22.25" x2="25.84" y2="22.25" xlink:href="#linear-gradient-5"/>
    <linearGradient id="linear-gradient-11" x1="42.48" y1="33.23" x2="65.52" y2="33.23" xlink:href="#linear-gradient-5"/>
    <linearGradient id="linear-gradient-12" x1="27.61" y1="53.94" x2="65.53" y2="53.94" xlink:href="#linear-gradient-5"/>
  </defs>
  <g class="cls-12">
    <g id="Camada_1" data-name="Camada 1">
      <circle class="cls-9" cx="40" cy="40" r="40"/>
      <circle class="cls-2" cx="39.91" cy="40" r="31.43"/>
      <g>
        <g>
          <path class="cls-19" d="M27.75,32.47c-.01.14-.02.29-.02.43.03,2.01-.75,4.08-2.21,5.5-.7.69-1.41,1.39-2.09,2.1-1.39,1.41-3.31,2.13-5.29,1.93-.11-.01-.22-.02-.33-.02-1.88-.04-3.67,1.39-3.21,3.39.45,1.97,1.04,4.24,4.43,4.19.11,0,.21.04.32.05,2.08.27,4.01,1.34,5.46,2.83.74.78,1.48,1.56,2.2,2.36,1.36,1.53,2.42,3.43,2.77,5.45.02.12.05.25.08.37.29,1.05.95,2,1.72,2.76.72.71,1.63,1.36,2.63,1.59,2,.45,3.3-1.37,3.24-3.19-.08-2.31-2.09-4.26-4.36-4.54-.03,0-.05,0-.08,0-1.93-.21-3.66-1.27-4.97-2.67-1.03-1.12-2.03-2.27-3.09-3.36-1.31-1.37-2.42-3.07-2.64-4.99,0,0,0-.02,0-.02,0,0,0-.02,0-.02-.22-1.78.38-3.46,1.6-4.79.95-1.01,1.89-2.04,2.89-3.01,1.41-1.38,3.35-2.11,5.29-2.18.03,0,.06,0,.09,0,2.49-.12,4.76-2.08,4.79-4.66.04-2.43-2.02-4.35-4.44-4.17-2.4.18-4.57,2.28-4.79,4.68Z"/>
          <path class="cls-1" d="M47.54,27.79c-.15-.01-.31-.02-.46-.02-2.1.02-4.36-.73-5.84-2.28-.69-.72-1.38-1.45-2.07-2.16-1.34-1.42-2.01-3.32-1.74-5.26.01-.11.03-.21.03-.32.07-1.28-.61-2.68-1.89-3.09-1.45-.47-3.5.29-4.57,1.24-.63.56-.89,1.34-1.11,2.15-.21.74-.08,1.45-.31,2.2-.49,1.63-1.42,3.14-2.56,4.38-.73.79-1.47,1.58-2.21,2.36-1.44,1.47-3.36,2.53-5.4,2.85-.12.02-.25.06-.38.08-2.75.36-3.96,2.31-4.41,4.29-.19.82,0,1.69.6,2.3.68.68,1.66.9,2.58.85,2.24-.13,4.22-2,4.55-4.23,0-.03,0-.05.01-.08.24-1.89,1.34-3.58,2.64-4.92,1.07-1.08,2.08-2.22,3.11-3.34,1.3-1.37,3-2.44,4.91-2.65,0,0,.02,0,.02,0,0,0,.02,0,.02,0,1.79-.2,3.49.4,4.78,1.67.98,1,1.94,2.02,2.93,3,1.38,1.36,2.18,3.24,2.23,5.16,0,.03,0,.06,0,.09.1,2.58,2.4,4.52,4.91,4.57,2.35.05,4.51-1.66,4.33-4.13-.17-2.41-2.34-4.5-4.72-4.72Z"/>
          <path class="cls-10" d="M54.55,59.38c.81-2.09,2.72-4,4.81-4.81.4-.15,1.41-.57,1.79-.13.35.41-.3,1.16-.53,1.46-.67.88-1.48,1.68-2.27,2.47-.79.79-1.59,1.6-2.47,2.27-.3.23-1.05.87-1.46.51-.44-.39-.03-1.37.12-1.78Z"/>
          <path class="cls-7" d="M19.37,55.9c-.22-.29-.88-1.05-.53-1.46.38-.44,1.39-.02,1.79.14,2.09.82,4,2.74,4.81,4.83.16.4.56,1.38.13,1.75-.41.35-1.17-.3-1.46-.53-.88-.67-1.68-1.48-2.47-2.27-.79-.79-1.6-1.59-2.27-2.47Z"/>
          <path class="cls-8" d="M54.54,20.6c-.15-.39-.56-1.37-.12-1.74.41-.35,1.16.29,1.47.52.88.67,1.68,1.48,2.47,2.27.79.79,1.6,1.59,2.27,2.47.22.29.88,1.05.52,1.45-.39.43-1.41,0-1.8-.17-2.07-.83-3.98-2.72-4.8-4.8Z"/>
          <path class="cls-14" d="M19.37,24.13c.67-.88,1.48-1.68,2.27-2.47.79-.79,1.59-1.6,2.47-2.27.29-.22,1.05-.88,1.47-.54.44.36.03,1.33-.12,1.72-.82,2.08-2.73,3.98-4.8,4.82-.4.16-1.41.6-1.8.18-.36-.39.3-1.16.52-1.44Z"/>
          <path class="cls-20" d="M46.89,22.17s.06,0,.09.01c2.05.23,3.91,1.39,5.3,2.87.83.9,1.64,1.8,2.5,2.67,1.41,1.44,2.61,3.25,2.87,5.29,0,0,0,.02,0,.03,0,.03,0,.06.01.08.27,1.9-.37,3.72-1.76,5.07-.7.66-1.4,1.3-2.06,1.99-1.51,1.59-3.66,2.39-5.83,2.38-.04,0-.07,0-.11,0-2.61.02-4.86,2.14-4.91,4.78-.05,2.49,1.92,4.73,4.5,4.56,2.5-.17,4.63-2.45,4.81-4.92,0-.03,0-.07,0-.1.1-2.09.9-4.26,2.39-5.76.69-.69,1.39-1.38,2.11-2.04,1.45-1.3,3.35-1.89,5.28-1.71.03,0,.05,0,.08,0,.93.06,1.92-.16,2.6-.84.62-.61.77-1.47.61-2.3-.55-2.83-1.89-3.92-4.46-4.3-.05,0-.1-.02-.15-.03-2.12-.44-4.08-1.55-5.6-3.09-.7-.72-1.38-1.44-2.06-2.17-1.4-1.53-2.52-3.44-2.96-5.49-.01-.07-.03-.14-.05-.21-.51-1.91-2.36-3.88-4.32-4.31-1.97-.43-3.3,1.27-3.24,3.1.08,2.27,2.13,4.15,4.35,4.45Z"/>
          <path class="cls-6" d="M32.42,51.81c.15.01.31.02.46.01,2.17-.06,4.39.79,5.88,2.4.69.74,1.37,1.5,2.05,2.24,1.34,1.48,2.01,3.4,1.75,5.4-.01.11-.03.22-.03.33-.08,1.85,1.23,3.68,3.26,3.22,1.02-.23,2.34-.61,3.07-1.35.76-.78,1.01-2.02,1.28-3.08.03-.1.05-.21.07-.31.36-2.03,1.44-3.97,2.81-5.5.72-.79,1.45-1.57,2.2-2.34,1.45-1.47,3.35-2.52,5.42-2.78.12-.02.25-.07.38-.07,2.61-.02,3.96-2.21,4.38-4.19.44-2.02-1.31-3.38-3.17-3.38-2.28,0-4.22,1.89-4.54,4.13,0,.03,0,.05-.01.08-.24,1.93-1.33,3.64-2.66,5.03-1.06,1.09-2.06,2.23-3.09,3.35-1.29,1.39-3.01,2.49-4.94,2.7,0,0-.02,0-.02,0,0,0-.02,0-.02,0-1.81.21-3.53-.42-4.82-1.73-.99-1.04-1.94-2.11-2.91-3.18-1.37-1.52-2.18-3.49-2.24-5.52,0-.03,0-.06,0-.09-.1-2.61-2.32-4.7-4.93-4.7-2.45,0-4.53,1.93-4.36,4.44.16,2.45,2.28,4.68,4.74,4.88Z"/>
        </g>
        <g class="cls-5">
          <g>
            <path class="cls-11" d="M34.83,65.54c-.2,0-.41-.02-.62-.07-1.11-.25-2.06-1.01-2.66-1.6-.87-.86-1.47-1.83-1.73-2.79-.03-.12-.06-.25-.08-.38-.42-2.38-1.73-4.26-2.76-5.42-.74-.81-1.47-1.61-2.19-2.36-1.52-1.55-3.45-2.55-5.43-2.81-.04,0-.09-.02-.13-.03-.06-.01-.12-.03-.18-.03-1.54.03-2.64-.42-3.37-1.36-.66-.85-.92-1.97-1.12-2.88-.24-1.06.14-1.82.51-2.27.63-.77,1.68-1.23,2.76-1.2.12,0,.23,0,.33.02,1.94.19,3.85-.5,5.23-1.91.7-.73,1.44-1.46,2.09-2.1,1.4-1.37,2.22-3.41,2.19-5.45,0-.15,0-.29.02-.44.23-2.43,2.4-4.56,4.85-4.74,1.18-.09,2.34.33,3.2,1.13.86.81,1.33,1.91,1.31,3.1-.02,1.24-.55,2.41-1.5,3.3-.9.85-2.13,1.36-3.36,1.43-.03,0-.05,0-.08,0h-.01c-2.01.08-3.92.87-5.25,2.17-.76.74-1.49,1.52-2.21,2.29-.23.24-.45.48-.68.72-1.23,1.34-1.8,3.02-1.58,4.73v.05c.2,1.67,1.08,3.34,2.63,4.95.71.74,1.41,1.51,2.09,2.26.33.36.66.74,1,1.1,1.42,1.52,3.17,2.46,4.93,2.65.03,0,.05,0,.08,0,1.13.14,2.21.69,3.04,1.53.85.87,1.34,1.96,1.38,3.07.04,1.09-.4,2.14-1.15,2.76-.45.37-.98.56-1.55.56ZM19.05,49.93c.07,0,.14.02.2.03.04,0,.08.02.11.02,2.01.26,3.96,1.27,5.5,2.85.72.75,1.46,1.55,2.2,2.36,1.04,1.17,2.37,3.08,2.79,5.49.02.12.05.24.08.36.26.94.84,1.88,1.7,2.73.59.58,1.51,1.33,2.6,1.57.77.17,1.49.01,2.06-.47.71-.59,1.13-1.61,1.1-2.65-.04-1.08-.51-2.15-1.34-2.99-.81-.82-1.86-1.35-2.97-1.49-.03,0-.05,0-.08,0-1.79-.2-3.56-1.15-5.01-2.69-.34-.37-.67-.74-1-1.1-.67-.75-1.37-1.52-2.08-2.26-1.57-1.64-2.46-3.33-2.66-5.03v-.05c-.22-1.75.35-3.47,1.61-4.84.23-.24.45-.48.68-.72.71-.76,1.45-1.55,2.21-2.29,1.35-1.32,3.29-2.12,5.33-2.2h.01s.05,0,.08,0c1.2-.06,2.4-.57,3.28-1.39.92-.86,1.44-2,1.46-3.21.02-1.15-.43-2.22-1.27-3.01-.83-.78-1.96-1.18-3.1-1.1-2.39.18-4.51,2.25-4.73,4.63h0c-.01.14-.02.28-.02.43.03,2.08-.8,4.15-2.23,5.55-.65.64-1.39,1.37-2.09,2.1-1.41,1.44-3.36,2.15-5.34,1.95-.1,0-.21-.02-.32-.02-1.04-.02-2.06.42-2.66,1.16-.35.43-.72,1.15-.49,2.16.42,1.85.95,4.14,4.25,4.14.04,0,.08,0,.12,0,0,0,0,0,0,0Z"/>
            <path class="cls-18" d="M17.54,37.45c-.65,0-1.65-.14-2.38-.88-.59-.59-.82-1.47-.61-2.36.4-1.77,1.5-3.96,4.47-4.34.07,0,.13-.02.2-.04.06-.01.12-.03.18-.04,1.96-.3,3.87-1.31,5.36-2.83.72-.75,1.47-1.54,2.21-2.36,1.2-1.31,2.08-2.82,2.55-4.36.11-.38.14-.76.16-1.12.02-.35.05-.71.15-1.08.23-.83.49-1.61,1.13-2.18.56-.49,1.35-.92,2.17-1.17.91-.27,1.79-.31,2.46-.09,1.36.44,2,1.92,1.93,3.15,0,.11-.02.22-.03.32-.26,1.87.37,3.77,1.73,5.2.36.38.73.76,1.09,1.13.33.34.66.69.99,1.03,1.36,1.42,3.48,2.26,5.7,2.26.03,0,.06,0,.1,0,.16,0,.31,0,.46.02h0c2.46.23,4.6,2.37,4.77,4.78.08,1.07-.28,2.08-1.02,2.85-.83.87-2.1,1.38-3.38,1.35-1.23-.03-2.47-.52-3.4-1.36-.97-.87-1.53-2.04-1.57-3.28,0-.02,0-.05,0-.07h0c-.05-1.92-.85-3.79-2.21-5.13-.55-.55-1.11-1.12-1.64-1.68-.42-.44-.86-.89-1.29-1.33-1.29-1.26-2.97-1.85-4.73-1.65h-.05c-2.2.25-3.87,1.58-4.88,2.64-.31.33-.62.68-.93,1.01-.71.77-1.44,1.57-2.19,2.33-1.05,1.08-2.37,2.81-2.63,4.89,0,.03,0,.05-.01.08-.33,2.28-2.36,4.16-4.61,4.29-.08,0-.16,0-.25,0ZM34.59,14.59c-1.27,0-2.71.62-3.56,1.37-.62.55-.87,1.32-1.09,2.12-.1.35-.12.71-.14,1.05-.02.37-.05.76-.17,1.15-.47,1.56-1.36,3.09-2.57,4.41-.75.81-1.49,1.61-2.22,2.36-1.51,1.54-3.44,2.56-5.43,2.87-.05,0-.11.02-.17.04-.07.02-.14.03-.21.04-2.89.38-3.97,2.52-4.36,4.24-.19.85.03,1.68.58,2.24.8.8,1.93.87,2.53.83,2.19-.12,4.17-1.96,4.49-4.18,0-.03,0-.05.01-.08.26-2.11,1.59-3.86,2.66-4.96.75-.76,1.48-1.55,2.18-2.32.3-.33.62-.67.93-1.01,1.02-1.08,2.72-2.42,4.95-2.67h.05c1.8-.21,3.52.39,4.83,1.68.44.44.87.89,1.29,1.33.53.55,1.09,1.12,1.64,1.67,1.38,1.36,2.2,3.26,2.25,5.21h0s0,.06,0,.09c.09,2.43,2.27,4.45,4.85,4.51,1.25.03,2.48-.46,3.28-1.31.72-.75,1.06-1.71.98-2.75-.17-2.35-2.26-4.44-4.66-4.66-.15-.01-.3-.02-.45-.02-2.29.02-4.48-.83-5.89-2.3-.33-.34-.66-.69-.99-1.03-.35-.37-.72-.76-1.09-1.13-1.38-1.47-2.03-3.4-1.76-5.31.01-.1.02-.21.03-.31.07-1.19-.55-2.61-1.84-3.03-.3-.1-.62-.14-.96-.14Z"/>
            <path class="cls-15" d="M54.72,61.33c-.12,0-.24-.04-.34-.12-.46-.4-.09-1.35.09-1.81l.02-.04c.83-2.13,2.73-4.03,4.85-4.85l.05-.02c.46-.18,1.42-.55,1.82-.09.36.41-.17,1.09-.46,1.46-.02.03-.05.06-.07.09-.64.85-1.42,1.62-2.17,2.37l-.24.24c-.74.74-1.51,1.51-2.34,2.14-.02.02-.05.04-.08.06-.28.22-.74.57-1.12.57ZM54.61,59.4l-.02.04c-.15.4-.52,1.32-.13,1.67.34.3.99-.21,1.3-.45.03-.02.06-.04.08-.06.83-.63,1.59-1.39,2.33-2.13l.24-.24c.75-.75,1.52-1.52,2.16-2.36.02-.03.04-.05.07-.09.24-.31.75-.96.46-1.29-.34-.39-1.28-.03-1.68.13l-.05.02c-2.06.79-3.98,2.71-4.78,4.77h0Z"/>
            <path class="cls-13" d="M25.29,61.33c-.39,0-.85-.36-1.13-.58-.03-.02-.06-.05-.08-.06-.85-.64-1.62-1.42-2.37-2.17l-.19-.19c-.76-.76-1.54-1.54-2.19-2.39h0s-.04-.05-.07-.08c-.26-.34-.82-1.04-.46-1.45.4-.46,1.35-.08,1.81.1l.05.02c2.11.83,4.02,2.74,4.85,4.87l.02.05c.18.45.54,1.39.09,1.78-.1.08-.21.12-.33.12ZM19.42,55.86c.65.85,1.43,1.63,2.18,2.38l.19.19c.75.75,1.52,1.52,2.36,2.16.02.02.05.04.08.06.31.24.96.75,1.3.46.39-.33.03-1.24-.12-1.63l-.02-.05c-.82-2.1-2.69-3.98-4.78-4.8l-.05-.02c-.4-.16-1.33-.52-1.67-.14-.29.33.22.98.46,1.29.02.03.05.06.07.09h0Z"/>
            <path class="cls-16" d="M60.64,25.82c-.44,0-.96-.21-1.26-.33l-.06-.02c-2.12-.85-4.02-2.75-4.84-4.84l-.02-.04c-.18-.45-.55-1.39-.09-1.78.42-.36,1.1.17,1.46.46.03.02.06.05.08.06.84.64,1.6,1.4,2.34,2.15l.24.24c.75.75,1.52,1.52,2.17,2.37.02.02.04.05.07.08.26.34.82,1.04.45,1.44-.14.15-.34.2-.56.2ZM54.72,18.82c-.09,0-.18.03-.25.09-.39.33-.03,1.24.12,1.63l.02.04c.81,2.06,2.68,3.93,4.77,4.77l.06.02c.4.16,1.33.54,1.68.16.3-.32-.21-.97-.45-1.28-.02-.03-.05-.06-.07-.09-.64-.84-1.41-1.61-2.16-2.35l-.24-.24c-.74-.74-1.5-1.5-2.33-2.13-.02-.02-.05-.04-.08-.06-.25-.19-.7-.55-1.05-.55Z"/>
            <path class="cls-3" d="M19.36,25.81c-.22,0-.42-.05-.55-.2-.37-.4.18-1.1.45-1.44.02-.03.05-.06.06-.08.65-.85,1.43-1.63,2.19-2.39l.19-.19c.75-.75,1.53-1.53,2.37-2.17.02-.02.05-.04.08-.06.36-.28,1.04-.81,1.46-.47.46.38.09,1.3-.08,1.75l-.02.05c-.83,2.1-2.73,4.01-4.84,4.86l-.06.02c-.3.12-.83.34-1.26.34ZM19.37,24.13l.05.04s-.04.05-.07.08c-.24.31-.75.96-.45,1.28.35.37,1.28,0,1.67-.17l.06-.02c2.08-.84,3.95-2.72,4.77-4.79l.02-.05c.15-.38.51-1.28.12-1.6-.34-.28-.99.23-1.3.47-.03.02-.06.05-.09.07-.84.64-1.61,1.41-2.36,2.16l-.19.19c-.75.75-1.53,1.53-2.18,2.38l-.05-.04Z"/>
            <path class="cls-17" d="M47.22,51.97c-1.05,0-2.05-.4-2.84-1.15-.94-.89-1.46-2.16-1.44-3.48.05-2.64,2.28-4.82,4.97-4.84.04,0,.07,0,.11,0,2.24.02,4.34-.84,5.78-2.36.53-.55,1.09-1.08,1.63-1.59.14-.13.29-.27.43-.4,1.39-1.35,2.01-3.13,1.74-5.02v-.02s0-.04-.01-.06v-.03c-.23-1.78-1.19-3.55-2.85-5.26-.66-.67-1.31-1.37-1.93-2.05-.19-.21-.38-.41-.57-.62-1.54-1.63-3.41-2.64-5.27-2.85-.03,0-.06,0-.09-.01h0c-1.1-.15-2.19-.69-3.01-1.5-.86-.85-1.35-1.92-1.39-3.01-.04-1.06.38-2.06,1.11-2.66.62-.51,1.38-.69,2.21-.51,1.9.42,3.82,2.33,4.37,4.36.02.08.04.15.05.21.52,2.41,1.89,4.3,2.95,5.46.69.74,1.38,1.47,2.06,2.17,1.54,1.55,3.51,2.64,5.57,3.07.02,0,.04,0,.06.01.03,0,.06.01.08.02,2.72.4,3.98,1.62,4.51,4.35.18.94-.04,1.78-.63,2.36-.37.36-1.2.96-2.65.86-.03,0-.05,0-.08,0-1.96-.19-3.82.42-5.24,1.69-.76.71-1.5,1.43-2.11,2.04-1.4,1.41-2.26,3.49-2.37,5.72,0,.03,0,.07,0,.1-.09,1.22-.64,2.41-1.55,3.36-.93.96-2.1,1.53-3.32,1.62-.1,0-.19,0-.29,0ZM47.95,42.62s-.03,0-.04,0c-2.62.02-4.79,2.14-4.84,4.72-.02,1.28.49,2.52,1.4,3.39.83.79,1.91,1.18,3.03,1.1,1.18-.08,2.33-.64,3.23-1.58.88-.91,1.43-2.11,1.52-3.28,0-.03,0-.07,0-.1.11-2.26.98-4.37,2.41-5.8.62-.61,1.35-1.34,2.11-2.05,1.45-1.3,3.34-1.92,5.33-1.73.03,0,.05,0,.08,0,.6.04,1.74-.01,2.55-.82.56-.55.77-1.35.59-2.25-.27-1.4-.74-2.37-1.46-3.04-.68-.63-1.62-1.02-2.95-1.21-.03,0-.07-.01-.1-.02-.02,0-.04,0-.06-.01-2.08-.43-4.08-1.53-5.64-3.1-.68-.7-1.37-1.43-2.06-2.17-1.07-1.17-2.46-3.08-2.98-5.52-.01-.06-.03-.13-.05-.21-.53-1.99-2.41-3.86-4.27-4.27-.79-.17-1.52,0-2.1.48-.7.58-1.09,1.54-1.06,2.56.04,1.06.52,2.1,1.35,2.92.8.79,1.87,1.32,2.94,1.46h0s.06,0,.09.01c1.89.21,3.79,1.24,5.34,2.89.19.21.38.41.57.62.62.68,1.27,1.38,1.93,2.05,1.69,1.73,2.66,3.52,2.89,5.33v.03s0,.04.01.06v.02c.28,1.93-.35,3.75-1.77,5.13-.14.14-.29.27-.43.41-.54.51-1.11,1.04-1.63,1.58-1.45,1.52-3.57,2.4-5.82,2.4-.02,0-.04,0-.06,0-.02,0-.05,0-.07,0Z"/>
            <path class="cls-4" d="M45.18,65.54c-.58,0-1.12-.19-1.58-.58-.74-.62-1.18-1.69-1.13-2.78,0-.1.01-.2.03-.33.25-1.93-.37-3.83-1.74-5.34-.31-.33-.62-.67-.92-1-.37-.41-.75-.83-1.14-1.24-1.43-1.55-3.61-2.44-5.83-2.38-.15,0-.31,0-.47-.01-2.48-.21-4.63-2.42-4.79-4.94-.08-1.15.32-2.25,1.1-3.09.84-.9,2.05-1.42,3.33-1.42h0c2.65,0,4.89,2.13,4.99,4.76,0,.03,0,.06,0,.09.05,2.01.84,3.96,2.22,5.48.23.25.46.51.68.76.72.8,1.47,1.63,2.22,2.42,1.29,1.31,2.99,1.92,4.77,1.71h.05c1.72-.19,3.46-1.14,4.9-2.69.23-.26.46-.51.7-.77.77-.86,1.57-1.74,2.39-2.59,1.54-1.61,2.43-3.29,2.64-4.99,0-.03,0-.05.01-.08.33-2.35,2.34-4.19,4.59-4.19h.01c1.1,0,2.12.46,2.73,1.22.51.63.68,1.41.5,2.25-.44,2.04-1.84,4.22-4.45,4.24-.07,0-.14.02-.21.03-.05.01-.1.02-.16.03-1.95.25-3.86,1.23-5.38,2.77-.72.75-1.46,1.53-2.2,2.34-1.47,1.64-2.46,3.58-2.79,5.46-.02.1-.04.2-.07.31-.03.11-.06.23-.09.34-.24.96-.51,2.06-1.21,2.76-.57.58-1.58,1.03-3.1,1.36-.21.05-.42.07-.63.07ZM33.11,51.75c2.17,0,4.29.9,5.7,2.42.38.41.77.83,1.14,1.24.3.33.61.67.91,1,1.4,1.55,2.03,3.48,1.77,5.45-.02.12-.03.23-.03.32-.05,1.06.37,2.08,1.08,2.68.58.49,1.31.65,2.1.48,1.49-.33,2.48-.77,3.03-1.33.67-.68.94-1.76,1.18-2.71.03-.12.06-.23.09-.35.03-.11.05-.21.07-.3.34-1.91,1.34-3.87,2.82-5.53.74-.8,1.48-1.59,2.2-2.34,1.54-1.55,3.47-2.55,5.45-2.8.05,0,.09-.02.14-.03.08-.02.16-.04.24-.04,2.53-.02,3.89-2.15,4.32-4.14.17-.8,0-1.54-.47-2.14-.59-.73-1.57-1.17-2.63-1.17-2.18,0-4.15,1.78-4.47,4.08,0,.03,0,.05-.01.08-.22,1.73-1.11,3.43-2.67,5.06-.82.84-1.62,1.73-2.39,2.58-.23.26-.46.51-.7.77-1.46,1.57-3.22,2.53-4.98,2.72h-.05c-1.82.22-3.56-.4-4.88-1.74-.76-.79-1.51-1.62-2.23-2.42-.23-.25-.46-.51-.68-.76-1.4-1.54-2.2-3.52-2.25-5.56,0-.03,0-.06,0-.09-.1-2.56-2.28-4.64-4.86-4.64h0c-1.24,0-2.41.5-3.23,1.38-.76.81-1.14,1.88-1.07,2.99.08,1.18.61,2.33,1.49,3.24.89.92,2.02,1.48,3.19,1.58h0c.15.01.31.02.45.01.08,0,.15,0,.23,0Z"/>
          </g>
        </g>
      </g>
    </g>
  </g>
</svg>